<svg xmlns="http://www.w3.org/2000/svg" xmlns:xlink="http://www.w3.org/1999/xlink" width="300" zoomAndPan="magnify" viewBox="0 0 224.87999 37.5" height="50" preserveAspectRatio="xMidYMid meet" version="1.0"><defs><g/><clipPath id="6567df3eea"><path d="M 13.683594 1.007812 L 70.535156 1.007812 L 70.535156 35.792969 L 13.683594 35.792969 Z M 13.683594 1.007812 " clip-rule="nonzero"/></clipPath></defs><g clip-path="url(#6567df3eea)"><path fill="#ffffff" d="M 42.25 2.773438 C 40.0625 4.183594 35.03125 7.394531 34.953125 7.214844 C 34.878906 7.042969 37.445312 4.339844 38.746094 2.984375 C 39.792969 2.90625 40.984375 2.832031 42.25 2.773438 Z M 26.59375 10.871094 C 26.203125 10.886719 25.800781 10.90625 25.402344 10.929688 C 26.332031 9.957031 32.042969 4.03125 34.824219 3.429688 C 35.078125 3.371094 35.457031 3.316406 35.929688 3.253906 C 33.617188 5.117188 27.886719 9.757812 26.59375 10.871094 Z M 17.347656 17.644531 C 17.191406 17.929688 17.082031 18.339844 17.09375 18.933594 C 17.109375 19.550781 17.261719 20.246094 17.441406 20.855469 C 16.601562 19.863281 16.070312 18.59375 15.839844 17.957031 C 15.84375 17.929688 15.84375 17.898438 15.851562 17.867188 C 16.078125 17.765625 16.527344 17.652344 17.347656 17.644531 Z M 18.277344 17.75 C 18.347656 17.746094 18.410156 17.722656 18.460938 17.691406 C 19.117188 17.742188 19.917969 17.851562 20.898438 18.03125 C 22.789062 18.378906 24.550781 19.152344 25.988281 20 C 28.046875 21.210938 29.425781 22.425781 29.453125 22.714844 C 29.367188 22.765625 27.308594 22.699219 25.109375 22.609375 C 22.671875 22.511719 20.109375 22.300781 19.5 22.203125 C 19.492188 22.203125 19.472656 22.199219 19.445312 22.191406 C 19.136719 22.125 18.847656 22.007812 18.578125 21.847656 C 18.316406 21.199219 17.863281 19.933594 17.839844 18.917969 C 17.8125 17.765625 18.277344 17.75 18.277344 17.75 Z M 69.050781 18.679688 C 69.050781 18.679688 66.453125 19.351562 64.070312 20.214844 C 61.617188 21.101562 59.375 22.1875 59.175781 22.53125 C 58.78125 23.203125 59.800781 23.632812 60.144531 23.648438 C 60.492188 23.664062 67.945312 23.816406 67.945312 23.585938 C 67.945312 23.355469 67.304688 23.074219 66.746094 23.105469 C 66.183594 23.136719 59.867188 23.039062 59.964844 22.710938 C 60.0625 22.382812 64.902344 20.242188 66.515625 19.714844 C 68.128906 19.1875 69.050781 18.679688 69.050781 18.679688 Z M 20.972656 25.183594 C 20.464844 25.183594 20.007812 25.390625 19.671875 25.722656 C 19.339844 26.054688 19.132812 26.515625 19.132812 27.023438 C 19.132812 27.53125 19.339844 27.988281 19.671875 28.324219 C 20.007812 28.65625 20.464844 28.859375 20.972656 28.859375 C 21.480469 28.859375 21.941406 28.65625 22.273438 28.324219 C 22.605469 27.988281 22.8125 27.53125 22.8125 27.023438 C 22.8125 26.515625 22.605469 26.054688 22.273438 25.722656 C 21.941406 25.390625 21.480469 25.183594 20.972656 25.183594 Z M 26.550781 22.210938 C 26.753906 22.214844 26.929688 22.054688 26.941406 21.851562 C 26.949219 21.648438 26.789062 21.472656 26.585938 21.460938 C 26.566406 21.460938 20.355469 21.1875 19.820312 20.808594 C 19.351562 20.472656 19.320312 18.773438 19.316406 18.765625 C 19.316406 18.5625 19.144531 18.398438 18.9375 18.402344 C 18.734375 18.40625 18.570312 18.574219 18.574219 18.78125 C 18.574219 18.789062 18.609375 20.863281 19.390625 21.414062 C 20.105469 21.925781 26.535156 22.207031 26.550781 22.210938 Z M 20.816406 26.472656 C 20.984375 26.304688 21.21875 26.199219 21.476562 26.199219 C 21.730469 26.199219 21.964844 26.304688 22.136719 26.472656 C 22.304688 26.640625 22.40625 26.875 22.40625 27.132812 C 22.40625 27.390625 22.304688 27.621094 22.136719 27.789062 C 21.964844 27.957031 21.730469 28.0625 21.476562 28.0625 C 21.21875 28.0625 20.984375 27.957031 20.816406 27.789062 C 20.648438 27.621094 20.542969 27.390625 20.542969 27.132812 C 20.542969 26.875 20.648438 26.640625 20.816406 26.472656 Z M 61.066406 27.367188 C 61.066406 27.367188 58.367188 24.277344 57.019531 24.011719 C 55.667969 23.746094 33.449219 23.152344 30.289062 24.4375 C 27.128906 25.722656 22.519531 30.824219 22.75 31.878906 C 22.789062 32.066406 22.839844 32.222656 22.890625 32.355469 L 15.148438 32.304688 C 14.992188 32.304688 14.785156 31.785156 14.652344 31.261719 L 14.648438 31.246094 C 14.605469 31.070312 14.574219 30.902344 14.558594 30.746094 C 14.550781 30.648438 14.550781 30.5625 14.554688 30.488281 L 17.515625 30.464844 C 17.789062 30.464844 21.796875 30.242188 21.796875 29.96875 C 21.796875 29.695312 17.789062 29.472656 17.515625 29.472656 L 15.890625 29.488281 C 15.78125 28.117188 15.472656 23.800781 15.671875 19.976562 C 16.402344 21.296875 17.574219 22.8125 19.238281 23.164062 C 19.253906 23.167969 19.292969 23.175781 19.351562 23.183594 C 19.984375 23.285156 22.601562 23.5 25.070312 23.601562 C 27.738281 23.707031 30.285156 23.605469 30.429688 22.917969 C 30.433594 22.886719 30.4375 22.855469 30.4375 22.824219 C 30.445312 22.691406 30.394531 22.570312 30.308594 22.476562 C 29.894531 21.714844 28.484375 20.316406 26.492188 19.144531 C 24.96875 18.246094 23.09375 17.425781 21.078125 17.054688 C 18.457031 16.570312 16.894531 16.652344 15.992188 16.859375 C 16.257812 15.308594 16.679688 14.097656 17.339844 13.601562 C 19.675781 11.847656 26.488281 11.234375 29.882812 11.902344 C 30.136719 11.984375 29.878906 11.871094 30.613281 12.160156 C 31.351562 12.449219 36.125 20.875 36.617188 20.875 C 37.109375 20.875 34.640625 15.839844 34.378906 14.984375 C 34.21875 14.472656 33.96875 13.734375 34.035156 13.128906 C 34.195312 13.078125 34.265625 13.007812 34.265625 13.007812 C 34.265625 13.007812 34.296875 12.878906 36.074219 12.578125 C 37.851562 12.285156 53.882812 12.316406 55 12.777344 C 56.121094 13.242188 55.921875 14.128906 55.660156 14.984375 C 55.394531 15.839844 52.925781 20.875 53.421875 20.875 C 53.914062 20.875 57.699219 13.632812 58.953125 13.140625 C 60.203125 12.648438 67.199219 11.726562 67.199219 11.726562 C 67.199219 11.726562 58.589844 11.957031 57.816406 11.871094 C 57.042969 11.789062 56.53125 10.816406 55.972656 10.789062 C 55.660156 10.769531 48.375 10.785156 42.011719 10.804688 C 43.527344 9.011719 48.191406 3.492188 48.550781 2.933594 C 48.625 2.816406 48.667969 2.707031 48.683594 2.609375 C 54.015625 2.597656 59.210938 2.929688 60.992188 3.988281 C 64.792969 6.246094 67.90625 9.453125 67.90625 9.453125 C 67.90625 9.453125 64.515625 4.085938 60.300781 2.605469 C 56.085938 1.125 36.992188 1.027344 32.351562 2.441406 C 27.710938 3.855469 23.398438 10.179688 23.398438 10.179688 L 23.304688 10.285156 C 22.933594 9.691406 22.273438 8.785156 21.464844 8.390625 C 20.214844 7.78125 14.273438 7.652344 13.976562 8.359375 C 13.683594 9.066406 15.472656 11.273438 17.085938 11.320312 C 18.703125 11.371094 21.453125 10.929688 22.238281 11.210938 C 22.128906 11.222656 22.019531 11.238281 21.914062 11.253906 C 17.632812 11.863281 15.730469 12.941406 15.300781 14.523438 C 15.140625 15.113281 14.640625 16.886719 14.484375 19.542969 C 14.269531 23.238281 14.316406 27.972656 14.339844 29.5 C 13.914062 29.503906 13.675781 29.777344 13.589844 30.214844 C 13.554688 30.394531 13.550781 30.605469 13.566406 30.832031 C 13.585938 31.039062 13.628906 31.261719 13.683594 31.488281 L 13.691406 31.511719 C 13.921875 32.398438 14.464844 33.289062 15.144531 33.296875 L 15.179688 33.296875 C 15.230469 33.976562 15.351562 35.140625 15.558594 35.300781 C 15.609375 35.34375 15.902344 35.375 16.347656 35.398438 L 16.351562 35.398438 C 17.601562 35.464844 20.066406 35.476562 21.9375 35.46875 C 35.332031 35.621094 68.230469 35.972656 69.285156 35.628906 C 70.300781 35.304688 39.667969 34.859375 25.371094 34.667969 C 25.371094 34.636719 25.371094 34.609375 25.367188 34.578125 C 25.324219 34.28125 25.390625 33.535156 25.445312 33.039062 C 31.316406 33.070312 49.171875 33.148438 68.265625 33.207031 L 68.265625 33.214844 C 69.417969 33.296875 70.648438 33.339844 70.664062 33.132812 C 70.675781 32.910156 69.363281 32.667969 68.195312 32.378906 C 46.15625 32.148438 26.234375 31.882812 26.039062 31.578125 C 25.941406 31.417969 26.140625 31.039062 26.519531 30.546875 C 33.011719 30.445312 56.539062 29.933594 57.59375 29.476562 C 57.59375 29.476562 35.136719 29.046875 27.917969 29 C 28.398438 28.523438 28.921875 28.035156 29.441406 27.589844 C 36.492188 27.558594 56.933594 27.015625 57.558594 26.742188 C 58.175781 26.476562 37.785156 26.664062 30.605469 26.636719 C 31.222656 26.171875 31.757812 25.828125 32.097656 25.722656 C 33.546875 25.261719 56.6875 24.570312 57.542969 24.898438 C 58.398438 25.230469 60.605469 27.632812 60.835938 27.5 C 61.066406 27.367188 61.066406 27.367188 61.066406 27.367188 " fill-opacity="1" fill-rule="evenodd"/></g><g fill="#004aad" fill-opacity="1"><g transform="translate(78.8127, 20.574681)"><g><path d="M 9.921875 0.335938 C 11.691406 0.335938 13.371094 -0.046875 14.808594 -0.742188 L 14.808594 -4.265625 C 13.777344 -3.378906 12.195312 -2.875 10.472656 -2.875 C 7.570312 -2.875 4.550781 -4.503906 4.550781 -8.195312 C 4.578125 -12.21875 7.546875 -13.898438 10.472656 -13.898438 C 12.027344 -13.898438 13.585938 -13.441406 14.6875 -12.578125 L 14.6875 -16.03125 C 13.226562 -16.75 11.550781 -17.109375 9.871094 -17.109375 C 5.390625 -17.109375 0.886719 -14.328125 0.863281 -8.195312 C 0.863281 -2.347656 5.4375 0.335938 9.921875 0.335938 Z M 9.921875 0.335938 "/></g></g></g><g fill="#004aad" fill-opacity="1"><g transform="translate(95.753578, 20.574681)"><g><path d="M 10.832031 -16.773438 L 6.902344 -16.773438 L 0.0703125 0 L 3.808594 0 L 5.03125 -3.113281 L 12.699219 -3.113281 L 13.921875 0 L 17.660156 0 Z M 6.15625 -6.132812 L 8.480469 -12.101562 C 8.625 -12.4375 8.722656 -12.769531 8.867188 -13.347656 C 9.007812 -12.769531 9.105469 -12.4375 9.226562 -12.101562 L 11.574219 -6.132812 Z M 6.15625 -6.132812 "/></g></g></g><g fill="#004aad" fill-opacity="1"><g transform="translate(114.755171, 20.574681)"><g><path d="M 1.796875 0 L 5.390625 0 L 5.390625 -5.871094 L 8.027344 -5.871094 L 12.554688 0 L 16.699219 0 L 11.71875 -6.324219 C 13.730469 -6.972656 15.359375 -8.433594 15.359375 -11.308594 C 15.359375 -15.550781 11.957031 -16.773438 8.699219 -16.773438 L 1.796875 -16.773438 Z M 5.390625 -8.867188 L 5.390625 -13.609375 L 8.839844 -13.609375 C 10.375 -13.609375 11.667969 -12.964844 11.667969 -11.238281 C 11.667969 -9.535156 10.375 -8.867188 8.839844 -8.867188 Z M 5.390625 -8.867188 "/></g></g></g><g fill="#004aad" fill-opacity="1"><g transform="translate(132.918084, 20.574681)"><g/></g></g><g fill="#d9d9d9" fill-opacity="1"><g transform="translate(139.52762, 20.574681)"><g><path d="M 1.796875 0 L 5.390625 0 L 5.390625 -6.757812 L 12.914062 -6.757812 L 12.914062 0 L 16.507812 0 L 16.507812 -16.773438 L 12.914062 -16.773438 L 12.914062 -10.015625 L 5.390625 -10.015625 L 5.390625 -16.773438 L 1.796875 -16.773438 Z M 1.796875 0 "/></g></g></g><g fill="#d9d9d9" fill-opacity="1"><g transform="translate(159.104277, 20.574681)"><g><path d="M 8.984375 0.335938 C 12.699219 0.335938 16.339844 -1.34375 16.339844 -6.300781 L 16.339844 -16.773438 L 12.746094 -16.773438 L 12.746094 -6.492188 C 12.746094 -3.859375 11.214844 -2.921875 8.984375 -2.921875 C 6.757812 -2.921875 5.222656 -3.859375 5.222656 -6.492188 L 5.222656 -16.773438 L 1.628906 -16.773438 L 1.628906 -6.300781 C 1.628906 -1.34375 5.273438 0.335938 8.984375 0.335938 Z M 8.984375 0.335938 "/></g></g></g><g fill="#d9d9d9" fill-opacity="1"><g transform="translate(178.345475, 20.574681)"><g><path d="M 1.796875 0 L 9.007812 0 C 11.933594 0 15.621094 -0.886719 15.621094 -4.695312 C 15.621094 -7.164062 14.042969 -8.386719 12.386719 -8.867188 C 13.898438 -9.367188 14.953125 -10.589844 14.953125 -12.53125 C 14.953125 -15.40625 12.722656 -16.773438 9.128906 -16.773438 L 1.796875 -16.773438 Z M 5.390625 -10.015625 L 5.390625 -13.824219 L 8.792969 -13.824219 C 10.398438 -13.824219 11.332031 -13.226562 11.332031 -11.910156 C 11.332031 -10.613281 10.375 -9.992188 8.984375 -9.992188 Z M 5.390625 -2.945312 L 5.390625 -7.238281 L 9.152344 -7.238281 C 10.589844 -7.238281 11.980469 -6.851562 11.980469 -5.078125 C 11.980469 -3.257812 10.566406 -2.945312 8.960938 -2.945312 Z M 5.390625 -2.945312 "/></g></g></g><g fill="#ffffff" fill-opacity="1"><g transform="translate(80.326391, 33.299441)"><g><path d="M 0.621094 0 L 1.867188 0 L 1.867188 -2.035156 L 2.78125 -2.035156 L 4.351562 0 L 5.789062 0 L 4.0625 -2.191406 C 4.757812 -2.417969 5.324219 -2.921875 5.324219 -3.921875 C 5.324219 -5.390625 4.144531 -5.8125 3.015625 -5.8125 L 0.621094 -5.8125 Z M 1.867188 -3.074219 L 1.867188 -4.71875 L 3.066406 -4.71875 C 3.597656 -4.71875 4.042969 -4.492188 4.042969 -3.894531 C 4.042969 -3.304688 3.597656 -3.074219 3.066406 -3.074219 Z M 1.867188 -3.074219 "/></g></g></g><g fill="#ffffff" fill-opacity="1"><g transform="translate(92.826683, 33.299441)"><g><path d="M 0.621094 0 L 4.765625 0 L 4.765625 -1.097656 L 1.867188 -1.097656 L 1.867188 -2.382812 L 4.46875 -2.382812 L 4.46875 -3.480469 L 1.867188 -3.480469 L 1.867188 -4.71875 L 4.71875 -4.71875 L 4.71875 -5.8125 L 0.621094 -5.8125 Z M 0.621094 0 "/></g></g></g><g fill="#ffffff" fill-opacity="1"><g transform="translate(104.604734, 33.299441)"><g><path d="M 0.621094 0 L 1.867188 0 L 1.867188 -2.988281 C 1.867188 -3.253906 1.867188 -3.546875 1.851562 -3.789062 L 4.542969 0 L 5.722656 0 L 5.722656 -5.8125 L 4.476562 -5.8125 L 4.476562 -2.832031 C 4.476562 -2.558594 4.476562 -2.257812 4.492188 -2.027344 L 1.800781 -5.8125 L 0.621094 -5.8125 Z M 0.621094 0 "/></g></g></g><g fill="#ffffff" fill-opacity="1"><g transform="translate(117.594827, 33.299441)"><g><path d="M 1.894531 0 L 3.140625 0 L 3.140625 -4.683594 L 4.917969 -4.683594 L 4.917969 -5.8125 L 0.109375 -5.8125 L 0.109375 -4.683594 L 1.894531 -4.683594 Z M 1.894531 0 "/></g></g></g><g fill="#ffffff" fill-opacity="1"><g transform="translate(129.264959, 33.299441)"><g><path d="M 3.753906 -5.8125 L 2.390625 -5.8125 L 0.0234375 0 L 1.320312 0 L 1.742188 -1.078125 L 4.402344 -1.078125 L 4.824219 0 L 6.121094 0 Z M 2.132812 -2.125 L 2.941406 -4.195312 C 2.988281 -4.308594 3.023438 -4.425781 3.074219 -4.625 C 3.121094 -4.425781 3.15625 -4.308594 3.199219 -4.195312 L 4.011719 -2.125 Z M 2.132812 -2.125 "/></g></g></g><g fill="#ffffff" fill-opacity="1"><g transform="translate(142.055812, 33.299441)"><g><path d="M 0.621094 0 L 4.726562 0 L 4.726562 -1.128906 L 1.867188 -1.128906 L 1.867188 -5.8125 L 0.621094 -5.8125 Z M 0.621094 0 "/></g></g></g><g fill="#ffffff" fill-opacity="1"><g transform="translate(153.535006, 33.299441)"><g/></g></g><g fill="#ffffff" fill-opacity="1"><g transform="translate(162.025607, 33.299441)"><g><path d="M 3.4375 0.117188 C 4.054688 0.117188 4.632812 -0.015625 5.132812 -0.257812 L 5.132812 -1.476562 C 4.777344 -1.171875 4.226562 -0.996094 3.628906 -0.996094 C 2.625 -0.996094 1.578125 -1.5625 1.578125 -2.839844 C 1.585938 -4.234375 2.617188 -4.816406 3.628906 -4.816406 C 4.167969 -4.816406 4.710938 -4.660156 5.089844 -4.359375 L 5.089844 -5.554688 C 4.585938 -5.804688 4.003906 -5.929688 3.421875 -5.929688 C 1.867188 -5.929688 0.308594 -4.964844 0.300781 -2.839844 C 0.300781 -0.8125 1.886719 0.117188 3.4375 0.117188 Z M 3.4375 0.117188 "/></g></g></g><g fill="#ffffff" fill-opacity="1"><g transform="translate(174.102518, 33.299441)"><g><path d="M 3.753906 -5.8125 L 2.390625 -5.8125 L 0.0234375 0 L 1.320312 0 L 1.742188 -1.078125 L 4.402344 -1.078125 L 4.824219 0 L 6.121094 0 Z M 2.132812 -2.125 L 2.941406 -4.195312 C 2.988281 -4.308594 3.023438 -4.425781 3.074219 -4.625 C 3.121094 -4.425781 3.15625 -4.308594 3.199219 -4.195312 L 4.011719 -2.125 Z M 2.132812 -2.125 "/></g></g></g><g fill="#ffffff" fill-opacity="1"><g transform="translate(186.893371, 33.299441)"><g><path d="M 0.621094 0 L 1.867188 0 L 1.867188 -2.035156 L 2.78125 -2.035156 L 4.351562 0 L 5.789062 0 L 4.0625 -2.191406 C 4.757812 -2.417969 5.324219 -2.921875 5.324219 -3.921875 C 5.324219 -5.390625 4.144531 -5.8125 3.015625 -5.8125 L 0.621094 -5.8125 Z M 1.867188 -3.074219 L 1.867188 -4.71875 L 3.066406 -4.71875 C 3.597656 -4.71875 4.042969 -4.492188 4.042969 -3.894531 C 4.042969 -3.304688 3.597656 -3.074219 3.066406 -3.074219 Z M 1.867188 -3.074219 "/></g></g></g></svg>